<?xml version="1.0" encoding="utf-8"?>
<!-- Generator: Adobe Illustrator 26.3.1, SVG Export Plug-In . SVG Version: 6.00 Build 0)  -->
<svg version="1.1"
	 id="svg3253" xmlns:svg="http://www.w3.org/2000/svg" xmlns:inkscape="http://www.inkscape.org/namespaces/inkscape" xmlns:sodipodi="http://sodipodi.sourceforge.net/DTD/sodipodi-0.dtd" xmlns:rdf="http://www.w3.org/1999/02/22-rdf-syntax-ns#" sodipodi:docname="thumb_tack.svg" xmlns:cc="http://creativecommons.org/ns#" xmlns:dc="http://purl.org/dc/elements/1.1/"
	 xmlns="http://www.w3.org/2000/svg" xmlns:xlink="http://www.w3.org/1999/xlink" x="0px" y="0px" viewBox="0 0 55 41.9"
	 style="enable-background:new 0 0 55 41.9;" xml:space="preserve">
<style type="text/css">
	.st0{opacity:0.7452;filter:url(#filter4036);enable-background:new    ;}
	.st1{fill:url(#SVGID_1_);}
	.st2{fill:url(#path3202_00000043430007035602433690000013734629243932310942_);}
	.st3{opacity:0.4183;filter:url(#filter3372);enable-background:new    ;}
	.st4{fill:url(#SVGID_00000135684040160683109870000001353442571931607697_);}
	.st5{fill:url(#path3468_00000077314316784115588450000009769226075563964577_);}
	.st6{fill-rule:evenodd;clip-rule:evenodd;fill:url(#path3478_00000069381342442144786360000009361792030911098791_);}
	.st7{fill:url(#path3204_00000057870652085447404720000003553871310750015876_);}
	.st8{fill-rule:evenodd;clip-rule:evenodd;fill:url(#path3226_00000035507524859391952750000014367280027333483140_);}
</style>
<filter  id="filter4036" inkscape:collect="always">
	<feGaussianBlur  id="feGaussianBlur4038" inkscape:collect="always" stdDeviation="0.52661716"></feGaussianBlur>
</filter>
<filter  height="1.4265637" id="filter3372" inkscape:collect="always" width="1.3287905" x="-0.16439523" y="-0.21328184">
	<feGaussianBlur  id="feGaussianBlur3374" inkscape:collect="always" stdDeviation="1.2413119"></feGaussianBlur>
</filter>
<defs>
	
		<inkscape:perspective  id="perspective3261" inkscape:persp3d-origin="372.04724 : 350.78739 : 1" inkscape:vp_x="0 : 526.18109 : 1" inkscape:vp_y="0 : 1000 : 0" inkscape:vp_z="744.09448 : 526.18109 : 1" sodipodi:type="inkscape:persp3d">
		</inkscape:perspective>
</defs>
<sodipodi:namedview  bordercolor="#666666" borderopacity="1.0" gridtolerance="10000" guidetolerance="10" id="base" inkscape:current-layer="g3244" inkscape:cx="53.09376" inkscape:cy="37.269568" inkscape:document-units="px" inkscape:pageopacity="0.0" inkscape:pageshadow="2" inkscape:window-height="744" inkscape:window-width="1280" inkscape:window-x="-4" inkscape:window-y="-4" inkscape:zoom="4.9283779" objecttolerance="10" pagecolor="#ffffff" showgrid="false">
	</sodipodi:namedview>
<g id="layer1" transform="translate(-352.52515,-462.42394)" inkscape:label="Layer 1" inkscape:groupmode="layer">
	<g id="g3244" transform="translate(27.292253,274.08237)">
		<g id="g4040" transform="matrix(2.8353579,0,0,2.8353579,-582.53598,-496.94258)">
			
				<g id="path3250" sodipodi:type="arc" sodipodi:cy="14.556754" sodipodi:cx="278.789" sodipodi:rx="7.3867884" sodipodi:ry="8.4657574" class="st0">
				
					<radialGradient id="SVGID_1_" cx="123.9955" cy="470.4299" r="3.6916" gradientTransform="matrix(2.5298 6.3582 6.6538 -1.2379 -3115.3755 44.0413)" gradientUnits="userSpaceOnUse">
					<stop  offset="0" style="stop-color:#000000;stop-opacity:0.9911"/>
					<stop  offset="0.5139" style="stop-color:#000000;stop-opacity:0.6161"/>
					<stop  offset="1" style="stop-color:#8D8D8D;stop-opacity:0"/>
				</radialGradient>
				<path class="st1" d="M329.4,255.7c-3.3,1.6-7.2,0.8-8.7-1.7c-1.5-2.5-0.1-5.9,3.2-7.5c0,0,0,0,0,0c3.3-1.6,7.2-0.8,8.7,1.7
					S332.7,254.1,329.4,255.7C329.4,255.7,329.4,255.7,329.4,255.7z"/>
			</g>
			<g id="g3934" transform="translate(-8.0346882,-1.7217189)">
				
					<radialGradient id="path3202_00000116209393664709029510000011849254282499318968_" cx="198.7621" cy="388.9103" r="4.4581" gradientTransform="matrix(3.4413 0 0 -3.4413 -341.4595 1588.9894)" gradientUnits="userSpaceOnUse">
					<stop  offset="0" style="stop-color:#F60000"/>
					<stop  offset="1" style="stop-color:#B30000"/>
				</radialGradient>
				
					<path id="path3202" sodipodi:type="arc" sodipodi:cy="4.6950564" sodipodi:cx="302.83102" sodipodi:rx="8.9206038" sodipodi:ry="8.9206038" style="fill:url(#path3202_00000116209393664709029510000011849254282499318968_);" d="
					M346,250.6c0,3-2.4,5.4-5.4,5.4c-3,0-5.4-2.4-5.4-5.4c0,0,0,0,0,0c0-3,2.4-5.4,5.4-5.4C343.6,245.2,346,247.6,346,250.6
					C346,250.6,346,250.6,346,250.6z"/>
				
					<g id="path3474" sodipodi:type="arc" sodipodi:cy="14.556754" sodipodi:cx="278.789" sodipodi:rx="7.3867884" sodipodi:ry="8.4657574" class="st3">
					
						<radialGradient id="SVGID_00000156563461917548403160000000719920740208128900_" cx="156.3079" cy="495.8219" r="3.6916" gradientTransform="matrix(1.4868 3.7369 3.9106 -0.7275 -1831.5221 26.7871)" gradientUnits="userSpaceOnUse">
						<stop  offset="0" style="stop-color:#000000;stop-opacity:0.9911"/>
						<stop  offset="0.5139" style="stop-color:#000000;stop-opacity:0.6161"/>
						<stop  offset="1" style="stop-color:#8D8D8D;stop-opacity:0"/>
					</radialGradient>
					<path style="fill:url(#SVGID_00000156563461917548403160000000719920740208128900_);" d="M340.4,253.5c-1.9,0.9-4.2,0.5-5.1-1
						s-0.1-3.5,1.9-4.4c0,0,0,0,0,0c1.9-0.9,4.2-0.5,5.1,1C343.2,250.6,342.3,252.5,340.4,253.5
						C340.4,253.4,340.4,253.5,340.4,253.5z"/>
				</g>
				
					<radialGradient id="path3468_00000074434282695900219340000016946679901613421461_" cx="254.909" cy="356.7321" r="4.4615" gradientTransform="matrix(2.1231 0 0 -2.1231 -199.8569 1006.8953)" gradientUnits="userSpaceOnUse">
					<stop  offset="0" style="stop-color:#7F0000"/>
					<stop  offset="0.6667" style="stop-color:#840000;stop-opacity:0.498"/>
					<stop  offset="1" style="stop-color:#000000;stop-opacity:0"/>
				</radialGradient>
				
					<path id="path3468" sodipodi:type="arc" sodipodi:cy="4.6950564" sodipodi:cx="302.83102" sodipodi:rx="8.9206038" sodipodi:ry="8.9206038" style="fill:url(#path3468_00000074434282695900219340000016946679901613421461_);" d="
					M344.7,249.5c0,1.8-1.5,3.3-3.3,3.3c-1.8,0-3.3-1.5-3.3-3.3c0,0,0,0,0,0c0-1.8,1.5-3.3,3.3-3.3
					C343.2,246.2,344.7,247.7,344.7,249.5C344.7,249.5,344.7,249.5,344.7,249.5z"/>
				
					<radialGradient id="path3478_00000138553044948952973200000010065205880486716039_" cx="123.5934" cy="390.9024" r="0.373" gradientTransform="matrix(-2.2342 1.4481 5.7988 8.9467 -1654.4163 -3423.4834)" gradientUnits="userSpaceOnUse">
					<stop  offset="0" style="stop-color:#FFFFFF"/>
					<stop  offset="1" style="stop-color:#FFFFFF;stop-opacity:0"/>
				</radialGradient>
				
					<path id="path3478" sodipodi:nodetypes="ccc" style="fill-rule:evenodd;clip-rule:evenodd;fill:url(#path3478_00000138553044948952973200000010065205880486716039_);" d="
					M336.9,253.4c-0.6-0.5-0.8-0.8-0.7-1.4C336.4,252.8,336.8,253.4,336.9,253.4z"/>
			</g>
			<g id="g3930" transform="translate(-8.0346882,-1.7217189)">
				
					<radialGradient id="path3204_00000162346577254023885410000002606215920809749636_" cx="223.7222" cy="373.0167" r="4.4615" gradientTransform="matrix(2.6692 0 0 -2.6692 -253.7055 1243.2271)" gradientUnits="userSpaceOnUse">
					<stop  offset="0" style="stop-color:#D43500"/>
					<stop  offset="0.4805" style="stop-color:#D42400"/>
					<stop  offset="0.7361" style="stop-color:#D40000"/>
					<stop  offset="1" style="stop-color:#B20000"/>
				</radialGradient>
				
					<path id="path3204" sodipodi:type="arc" sodipodi:cy="4.6950564" sodipodi:cx="302.83102" sodipodi:rx="8.9206038" sodipodi:ry="8.9206038" style="fill:url(#path3204_00000162346577254023885410000002606215920809749636_);" d="
					M347.7,247.6c0,2.3-1.9,4.2-4.2,4.2s-4.2-1.9-4.2-4.2c0,0,0,0,0,0c0-2.3,1.9-4.2,4.2-4.2S347.6,245.2,347.7,247.6
					C347.7,247.6,347.7,247.6,347.7,247.6z"/>
				
					<radialGradient id="path3226_00000096031402788124340450000015749112123782120117_" cx="212.6602" cy="346.6673" r="0.373" gradientTransform="matrix(4.6185 -3.5366 -14.1624 -18.4947 4274.1357 7409.1763)" gradientUnits="userSpaceOnUse">
					<stop  offset="0" style="stop-color:#FFFFFF"/>
					<stop  offset="1" style="stop-color:#FFFFFF;stop-opacity:0"/>
				</radialGradient>
				
					<path id="path3226" sodipodi:nodetypes="ccc" inkscape:transform-center-y="-4.327365" inkscape:transform-center-x="-5.6687094" style="fill-rule:evenodd;clip-rule:evenodd;fill:url(#path3226_00000096031402788124340450000015749112123782120117_);" d="
					M345.2,244.3c1.4,1,1.9,1.6,1.8,2.8C346.2,245.5,345.3,244.3,345.2,244.3z"/>
			</g>
		</g>
	</g>
</g>
</svg>
