<svg xmlns="http://www.w3.org/2000/svg" width="580.614" height="433.336" viewBox="0 0 580.614 433.336"><defs><style>.a{fill:#00a1ed;}.b{fill:#fff;}.c{fill:#3b3088;}</style></defs><g transform="translate(0.001 -136.975)"><g transform="translate(-0.001 136.975)"><g transform="translate(0 0)"><path class="a" d="M319.957,648.871c-4.779,1.679-8.835,3.279-12.189,4.7a295.87,295.87,0,0,1-12.129,27.774c3.642-.536,7.46-1.094,11.451-1.646a301.857,301.857,0,0,0,12.867-30.826" transform="translate(-136.701 -373.673)"/><path class="a" d="M754.756,632.445a321.169,321.169,0,0,0,13.195,39.411c4.418.715,8.461,1.424,12.061,2.09A383.475,383.475,0,0,1,768.6,636.961c-3.735-1.356-8.352-2.909-13.843-4.516" transform="translate(-348.995 -366.078)"/><path class="a" d="M315.177,194.946s-.506-1.337-.759-2c-10.754-28.2-23.542-46.859-30.713-55.975,6.416,8.57,17.134,26.078,25.437,55.686,1.429.692,6.035,2.285,6.035,2.285" transform="translate(-131.183 -136.975)"/><path class="a" d="M781.385,278c22.237-53.59,55.914-92.031,55.914-92.031s-52.25,37.335-76.814,103.253c7.931-3.786,14.893-7.6,20.9-11.221" transform="translate(-351.644 -159.631)"/><path class="a" d="M351.768,297.523c-.153-.624-.823-.809-3.028-1.534-3.98-.97-5.842-2.395-5.771-1.979,1.85,10.724,3.324,22.557,4.267,35.556,3.419,2.679,7.244,5.489,11.456,8.335a297.347,297.347,0,0,0-6.924-40.377" transform="translate(-158.585 -209.553)"/><path class="a" d="M827.142,800.236c17.719,29.072,33.512,45.909,33.512,45.909s-11.881-17.326-25.682-44.881c-2.414-.317-5-.661-7.829-1.028" transform="translate(-382.465 -443.664)"/><path class="a" d="M395.348,793.857c-97.829,4.387-151.307,41.8-153.25,43.188,1.648-1.151,27.524-18.2,132.281-31.138,103.51-12.788,149.962,10,149.962,10s-19.747-26.93-128.992-22.046" transform="translate(-111.944 -440.441)"/><path class="a" d="M242.018,874.7l-.093.062s.057-.035.093-.062" transform="translate(-111.864 -478.095)"/><path class="a" d="M173.212,810.15C139.725,854.5,105.375,880.6,105.375,880.6s41.31-22.976,79.766-72.577c-4.234.735-8.233,1.449-11.929,2.126" transform="translate(-48.724 -447.265)"/><path class="a" d="M303.962,231.43c134.06,31.214,191.922-14.721,191.922-14.721s-94.074,33.7-199.524,1.621C192.9,186.848,164.218,144.9,164.218,144.9s29.99,60.975,139.744,86.526" transform="translate(-75.933 -140.641)"/><path class="b" d="M90.03,780.3l-6.372,1.293L79.1,759.09l-12.583,2.542-.99-4.89,31.592-6.394.987,4.89L85.473,757.8Z" transform="translate(-30.3 -420.596)"/><path class="b" d="M132.313,745.449l23.634-3.879c4.221-.7,6.446.477,7.08,4.332l1.058,6.467c.631,3.847-1.1,5.671-5.325,6.361l-3.638.6,14.438,8.338-9.2,1.512-12.831-8.6-6.1.994L143.146,772l-6.307,1.03Zm7.088,3.717,1.263,7.7L155.1,754.5c1.982-.33,2.829-.849,2.529-2.67l-.541-3.316c-.3-1.818-1.271-2.045-3.25-1.717Z" transform="translate(-61.18 -416.449)"/><path class="b" d="M210.6,734.721l6.232-.806,19.485,25.674-7.255.938-4.114-5.642-17.572,2.266-2.441,6.487-6.448.832Zm11.016,15.514L214.2,739.713,209.479,751.8Z" transform="translate(-91.781 -412.998)"/><path class="b" d="M272.021,726.159l5.232-.489,14.685,15.607L303.2,723.243l5.183-.489,2.6,27.839-5.984.56-1.613-17.207c-.05-.547-.088-1.524-.063-2.991a18.667,18.667,0,0,1-1.348,3.065l-9.16,14.893-1.3.131-11.771-13a12.534,12.534,0,0,1-1.941-2.7c.213,1.117.356,2.031.44,2.944l1.613,17.219-5.235.486Z" transform="translate(-125.781 -407.837)"/><path class="b" d="M358.133,720.162l23.894-1.5c4.273-.266,6.366,1.118,6.613,5.016l.391,6.216c.243,3.89-1.662,5.533-5.932,5.8l-17.519,1.1.686,10.871-6.383.4Zm6.681,4.421.464,7.408,14.6-.924c2-.128,2.893-.56,2.775-2.4l-.186-2.974c-.115-1.843-1.055-2.162-3.056-2.031Z" transform="translate(-165.598 -405.931)"/><path class="b" d="M431.926,716.394l20.579-.71c5.248-.178,6.976,1.121,7.154,6.371l.511,14.732c.178,5.251-1.454,6.658-6.708,6.841l-20.578.709c-5.251.181-6.974-1.118-7.156-6.369l-.5-14.726c-.183-5.259,1.449-6.664,6.7-6.847m21.789,21.967-.607-17.708-21.445.738.61,17.711Z" transform="translate(-196.614 -404.56)"/><path class="b" d="M507.252,714.948l6.5-.058.2,22.695,20.964-.178.049,5.253L507.5,742.9Z" transform="translate(-234.55 -404.2)"/><path class="b" d="M568.486,714.719l6.5.052-.213,27.954-6.5-.044Z" transform="translate(-262.766 -404.121)"/><path class="b" d="M599.261,714.9l4.442.124,19.208,17a24.233,24.233,0,0,1,3.111,3.116c-.1-2.332-.164-3.961-.14-4.819l.4-14.679,5.849.156-.763,27.94-4.439-.115-20.054-17.836a22.506,22.506,0,0,1-2.263-2.335c.158,2.165.169,3.633.148,4.448l-.413,15.1-5.844-.162Z" transform="translate(-276.745 -404.206)"/><path class="b" d="M679.214,717.46l28.56,1.571-.265,4.759-22.068-1.216L685.1,728.8l12.875.7-.262,4.763-12.872-.711-.383,6.927,22.342,1.233-.29,5.249-28.834-1.588Z" transform="translate(-313.352 -405.388)"/><path class="b" d="M778.411,723.952l23.845,2.275c4.261.4,6.112,2.1,5.745,5.993l-.593,6.2c-.369,3.887-2.507,5.208-6.771,4.8l-17.481-1.665L782.129,752.4l-6.367-.61Zm5.912,5.415-.705,7.384,14.562,1.386c2,.186,2.949-.1,3.125-1.932l.285-2.966c.175-1.836-.705-2.3-2.7-2.49Z" transform="translate(-358.708 -408.39)"/><path class="b" d="M845.537,732.4l6.236.761,12.5,29.7-7.26-.889-2.586-6.484-17.58-2.165L832.875,759l-6.454-.793Zm6.82,17.755-4.579-12.022-7.572,10.532Z" transform="translate(-382.132 -412.297)"/><path class="b" d="M909.28,738.982l23.651,3.775c4.226.672,5.965,2.488,5.352,6.344l-1.034,6.468c-.613,3.852-2.834,5.035-7.061,4.365l-3.638-.59,11.072,12.468-9.2-1.468-9.469-12.206-6.1-.971L911.193,767.6l-6.315-1.009Zm5.554,5.773-1.229,7.7,14.447,2.3c1.981.316,2.949.092,3.242-1.733l.528-3.318c.289-1.816-.561-2.338-2.541-2.649Z" transform="translate(-418.411 -415.34)"/><path class="b" d="M981.543,751.052l6.427,1.309-2.319,11.413,17.5-8.335,9.24,1.878-20.778,9.209,17.443,18.635-10.243-2.078L984.852,767.7l-2.445,12.047-6.426-1.3Z" transform="translate(-451.288 -420.921)"/><path class="c" d="M552.582,449.706l-4.852,4.371a116.352,116.352,0,0,1-11.913,9.371l-1.793,1.273a31.73,31.73,0,0,1-2.876,1.807c-4.005-5.008-10.954-14.171-15.65-22.888-3.75-6.979-6.965-13.3-9.756-19.179l10.614,3.141s-8.018-18.651-10.024-36.231a242.857,242.857,0,0,1-1.2-31.33l-9.245-2.239-9.083,8.135c-.659-3.573-1.4-7.547-2.182-11.858,4.087-4.7,9.177-11.035,11.265-15.589.651-1.416,1.272-2.747,1.875-4.054,4.661-10,8.343-17.894,12.211-37.229l2.449-13.4-10.645-2.8-24.233,22c-4.97,4.693-7.725,6.487-13.217,10.057-2.742,1.785-6.156,4-10.765,7.2-.5.356-1.558,1.151-1.566,1.159l-3.893,2.89-.1,5.568c-.011.4-.022.782-.03,1.217q-.049,6.642.142,13.271c-1.659-2.293-3.354-4.559-5.055-6.8l-5.36-7.037-7.564,4.543c-.216.128-5.267,3.127-12.826,7.009-3.551,1.821-6.4,3.028-10.035,4.565l-.642.274c-.768.331-1.575.672-2.425,1.039l-.088-.254-9.436,3.471c-5.172,1.9-10.349,3.63-15.494,5.216a215.542,215.542,0,0,1,16.555-49.773c-21.426,8.368-55.522,16.694-103.66,14.255a419.33,419.33,0,0,1-69.936-9.9q-5.384-1.2-10.519-2.518a324.3,324.3,0,0,1,4.9,43.778c-.531-.167-.9-.281-.965-.309-10.978-4.024-13.482-5.055-13.8-5.186l-6.285-2.57-9.483,12.85,3.594,4.212c.949,2.728,3.811,12.884,1.933,31.98-1.6,16.285-4.051,27.224-7.474,37.21-.366-14.545-1.293-32.053-3.529-45.777-6.008-36.881-10.759-55-10.959-55.743l-.806-3.015-2.506-1.823c-.019-.013-2.042-1.487-6.066-4.945a72.419,72.419,0,0,1-9.8-11.167l-11.432-16.355-4.231,19.5c-.159.719-15.887,72.169-42.51,107.657-34.989,46.654-79.883,80.6-80.332,80.936L0,508.617l21.819,9.7,2.985-.809c.005,0,14.19-3.83,24.712-6.632,10.03-2.662,25.026-5.235,25.179-5.26l2.939-.5,2.02-2.2c1.359-1.478,32.626-35.744,49.013-66.6,5.565-1.884,10.5-3.739,14.712-5.53.94-.4,1.925-.831,2.949-1.3a136.467,136.467,0,0,1-13.692,42.641l-3.666,9.07,4.644,7.05a180.952,180.952,0,0,1,32.328-16.194c2.834-1.05,5.51-2.736,7.8-3.679l15.169-5.243c.924-.282,7.637-2.359,16.784-4.819-3.841,14.715-8.679,25.218-14.578,39.161,22.219-4.445,68.5-8.586,104.365-8.586,28.372,0,57.766,2.547,98.4,7.342a317.408,317.408,0,0,1-12.429-42.922c7.345,1.547,14.622,3.318,21.784,5.254,1.293.347,3.619,1.082,4.33,1.309.068.022.131.036.191.058l21.3,6.812-.17-.356,15.046,5.328,4.316-6.066c6.462-9.045,11.522-20.119,14.974-32.532,8.728,24.138,21.057,46.484,28.829,59.485L494.064,496l3.791,1.074v-.006l.181.055c10.221,2.979,18.208,5.494,20.338,6.4,3.865,1.665,7.753,3.232,12.279,5.057l.219.088c4.092,1.651,8.723,3.51,14.056,5.751L558.7,520.17l-.08-14.9c0-.328-.008-8.012,1.195-20.792a112.671,112.671,0,0,1,3.944-19.991l2.179-6.545Z" transform="translate(0.001 -203.577)"/><path class="b" d="M351.69,488.9,326.6,465l7.217-6.487L355.9,473.808l7.786-2.84,5.568,6.017ZM250.7,484.321l-16.382-8.127,3.819-6.809,9.19,1.041,16.355-10.716,10.945,3.753Zm48.491-38.347,13.914-1.047,4.242-55.172-16.068-1.462Zm-112.58-50.511c-6.008-36.9-10.781-54.92-10.781-54.92s-2.173-1.572-6.629-5.394c-5.8-4.972-11.266-12.788-11.266-12.788s-15.95,73.564-44.051,111.041C77.672,481.683,31.811,516.08,31.811,516.08l5.429,2.413s14.206-3.832,24.744-6.645c10.538-2.8,25.95-5.431,25.95-5.431s33.189-36.2,48.879-66.981c.153-.29.3-.585.443-.875,5.035-1.643,11.557-3.914,17.421-6.4,5.142-2.187,11.027-5.167,15.986-7.818.454,32.565-15.713,61.437-15.713,61.437s15.084-8.452,21.508-11.973a101.484,101.484,0,0,1,13.679-6.008s.973-44.722-3.524-72.337M154.382,418.5c-3.811,2.676-7.5,5.057-10.817,7.11,12.121-25.833,20.412-48.942,20.412-48.942a300.394,300.394,0,0,1,5.382,30.367c-3.734,3.119-8.816,7.137-14.977,11.465m410.24,97.947-1.629-.681c-5.459-2.285-10.2-4.193-14.373-5.877-4.456-1.8-8.316-3.357-12.1-4.981-4.281-1.828-21.4-6.777-21.571-6.831l-.44-.128-.236-.388c-10.163-16.992-28.238-50.205-35.135-81.794a339.383,339.383,0,0,1-7.739-75.2c0-.385.008-.714.022-1.053l.027-1.353.459-.347s.973-.727,1.429-1.052c4.382-3.048,7.747-5.24,10.451-6.992a85.443,85.443,0,0,0,14.455-11.03l18.594-17.4-.708,3.551c-3.663,18.318-6.976,25.431-11.563,35.274-.607,1.3-1.241,2.651-1.9,4.095-2.33,5.071-10.727,14.455-12.676,16.6,2.993,16.547,5.371,28.943,6.235,33.4a54.542,54.542,0,0,0,5.844-4.992,37.876,37.876,0,0,0,7.225-9.95l2.22.568a107.25,107.25,0,0,0,.885,22.077,135.424,135.424,0,0,0,4.752,19.939l.658,2.086-2.1-.619c-.041-.013-4.248-1.255-6.626-1.7-1.285-.244-2.523-.471-3.726-.689a330.619,330.619,0,0,0,17.17,36.2c5.806,10.79,14.693,22.022,18.25,26.349l2.829,3.267a64.352,64.352,0,0,0,10.188-5.571,138.087,138.087,0,0,0,14.471-11.265l1.925,1.183a121.509,121.509,0,0,0-4.355,21.937c-1.266,13.5-1.233,21.546-1.233,21.623ZM455.358,470.7,444.8,466.961l-.208-.432c-9.239-19.269-15.524-36.351-18.671-50.757a324.95,324.95,0,0,1-6.757-48.169l-.058-.82.749-.328c2.1-.913,3.9-1.678,5.539-2.376,3.789-1.6,6.782-2.878,10.6-4.83,8.017-4.12,13.266-7.258,13.312-7.285l.9-.539.629.831c12.353,16.3,24.353,33.937,23.659,54.5-.85,25.141-7.471,47.6-18.632,63.231ZM197.545,465.41l1.107-2.455c.054-.115.137-.268.221-.427.055-.106.118-.221.148-.3,8.436-18.845,13.236-31.912,15.874-58.753,2.54-25.852-2.969-37.314-3.078-37.44l1.339-1.82c.082.033,2.236.954,14.111,5.3,11.079,4.062,11.705,4.819,11.705,5.637.317,1.632,2.709,15.521-3.562,39.363-3.783,14.4-6.733,21.218-8.5,24.386A108.018,108.018,0,0,0,244.1,433.37a69.605,69.605,0,0,0,15.425-8.521l2.629-2.088-.768,3.259c-.011.057-1.274,5.385-3.217,11.7-1.356,4.4-4.838,12.29-4.989,12.629l-.249.56-.6.107c-1.526.279-3.456.776-5.689,1.356-2.435.623-5.188,1.336-8.422,2.034-19.042,4.114-37.146,9.789-37.324,9.843Zm230.091-3.581-2.506-.8c-.033-.005-3.25-1.033-4.907-1.479a401.275,401.275,0,0,0-46.083-9.562l-.262-.039-.219-.153a1.627,1.627,0,0,1-.566-.684,202.752,202.752,0,0,1-10.872-33.341c-2.219-10.166-3.985-20.636-5.262-31.13l-.2-1.317,1.151-.181c4.335-.659,8.851-1.476,13.435-2.447l.377-.074,1.61.743.071.648a332.767,332.767,0,0,0,5.5,33.259,164.744,164.744,0,0,0,4.748,16.957l.033.008A67.155,67.155,0,0,1,395.9,437.2a174.6,174.6,0,0,1-6.287-21.434,336.527,336.527,0,0,1-5.858-36.389c-.068-.473-.221-1.55.817-1.829,9.13-2.406,18.49-5.361,27.825-8.78l1.107-.41.725,2.083-.331.481c-.074.112-7.755,11.817-4.133,35.775.432,2.846.911,5.623,1.421,8.263l.027.246c3.715,16.981,10.388,33.421,15.333,44.229Zm-166.38-11.29.6-1.783c.066-.194,6.659-19.468,9.33-29.2,2.061-7.515,3.9-17.973,4.6-22.147l-22.167-14.379,5.418-6.971L280.8,386.5l16.74-1.976-.093,15.185-6.514-.58c-.831,3.652-3.116,12.949-7.583,26.415-3.521,10.625-10.092,22.809-10.158,22.926l-.281.525Zm90.682-3.324-1.6-.107c-.189-.008-4.71-.29-5.688-.4-1.46-.169-3.3-.366-3.3-.366l-.705-.077-.252-.667a249.309,249.309,0,0,1-8.684-28.755,120.075,120.075,0,0,1-2.589-19.5l-3.663,2.854-5.973-13,40.769-22.82,5.385,7.3L343.636,387.3a239.447,239.447,0,0,0,2.267,32.623c1.271,8.649,5.6,25.572,5.636,25.745Zm86.712-72.85c.509,3.589,2.7,18.883,5.546,34.394a209.5,209.5,0,0,0,6.331,25.422c.782-1.859,1.719-4.144,2.127-5.259,3.324-9.158,3.893-16.112,4.316-28.755.4-11.6-3.8-22.361-8.559-32.284-.965.681-2.433,1.695-3.9,2.633-.82.533-1.536,1.025-2.222,1.5a43.342,43.342,0,0,1-3.644,2.351M366.8,368.218l-5.008-5.077-4.347-12,3.554-.073,2.083,5.819,6.358-10.442,1.63,1.389-2.143,8.042,1.247.156L375.177,349l1.288,2.1-4.642,7.569.569,1.408,7.4-3.176-.661,2.5Zm-115.68,12.556,4.784-5.3,2.562-10.735-2.288-1.358-1.812,5.91-6.547-8.682-1.6.484,2.25,7.427-1.239.207-6.708-4.751-1.118,1.394,6.287,6.058-.5,1.43-5.216-2.209-1.555,1.815Z" transform="translate(-14.709 -212.978)"/><path class="b" d="M550,398.007l-1.076-16.243-1.224.03-.3,7.476-2.462-.282-.252-12.922-3.19.82-.787,9.144-2.7.144-.87-6.443-3.518-.235.333,8.152-1.9.139-1.354-9.456-2.135.044-.051,6.618-2.556.005.422,14.2a12.833,12.833,0,0,0-.66,4.266A12.689,12.689,0,1,0,550,398.007" transform="translate(-243.091 -247.53)"/><path class="b" d="M1055.7,779.032a10.048,10.048,0,0,1,4.386,2.318,8.979,8.979,0,0,1,2.727,4.347,9.8,9.8,0,0,1-2.2,9.491,9.088,9.088,0,0,1-4.341,2.7,9.813,9.813,0,0,1-9.454-2.211,9.115,9.115,0,0,1-2.695-4.346,9.752,9.752,0,0,1,2.239-9.484,9.007,9.007,0,0,1,4.38-2.679,10,10,0,0,1,4.958-.134m-.366,1.572a8.377,8.377,0,0,0-4.142.115,7.6,7.6,0,0,0-3.65,2.239,8.121,8.121,0,0,0-1.868,7.9,7.614,7.614,0,0,0,2.251,3.622,8.123,8.123,0,0,0,7.881,1.845,7.622,7.622,0,0,0,3.622-2.245,8.223,8.223,0,0,0,1.965-3.69,8.312,8.312,0,0,0-.131-4.223,7.531,7.531,0,0,0-2.281-3.628,8.374,8.374,0,0,0-3.648-1.938m-7.258,12.212,2.4-10.226,3.513.819a8.951,8.951,0,0,1,2.538.9,2.56,2.56,0,0,1,1.05,1.287,2.667,2.667,0,0,1,.13,1.611,2.8,2.8,0,0,1-1.255,1.766,3.232,3.232,0,0,1-2.341.434,2.975,2.975,0,0,1,.741.743,11.749,11.749,0,0,1,1.036,2.381l.78,2.3-2.014-.473-.528-1.826a8.6,8.6,0,0,0-1.17-2.783,2.162,2.162,0,0,0-1.239-.659l-.971-.227-1.017,4.341Zm3-5.372,2,.471a3.328,3.328,0,0,0,2.058.03,1.5,1.5,0,0,0,.725-1.884,1.588,1.588,0,0,0-.571-.7,5.571,5.571,0,0,0-1.615-.563l-1.874-.437Z" transform="translate(-482.606 -433.743)"/></g></g></g></svg>